{"title":"American.Muscle.2014.1080p.BluRay.H264.AAC.Mp4.Raven","uid":11129739,"size":1219507384,"categoryP":"video","categoryS":"hd___movies","magnet":"?xt=urn:btih:1df8fac7381a4d80709a8f78a2a22eed6919af16&amp;dn=American.Muscle.2014.1080p.BluRay.H264.AAC.Mp4.Raven&amp;tr=udp%3A%2F%2Ftracker.openbittorrent.com%3A80&amp;tr=udp%3A%2F%2Fopen.demonii.com%3A1337&amp;tr=udp%3A%2F%2Ftracker.coppersurfer.tk%3A6969&amp;tr=udp%3A%2F%2Fexodus.desync.com%3A6969","seeders":0,"leechers":0,"uploader":"Raven1969","files":-1,"time":1412021766,"description":"American.Muscle.2014.1080p.BluRay.H264.AAC.Mp4.Raven\n\n\n\n\n\nEnglish, Swedish subs included.\n\n\n\n\n\nScreen images:\n\n\n &lt;a href=&quot;\nhttp://i.imgur.com/YCdwEV8.png&quot; rel=&quot;nofollow&quot; target=&quot;_NEW&quot;&gt;\nhttp://i.imgur.com/YCdwEV8.png&lt;/a&gt;\n\n\n &lt;a href=&quot;\nhttp://i.imgur.com/QH54qrD.png&quot; rel=&quot;nofollow&quot; target=&quot;_NEW&quot;&gt;\nhttp://i.imgur.com/QH54qrD.png&lt;/a&gt;\n\n\n &lt;a href=&quot;\nhttp://i.imgur.com/OqE1LON.png&quot; rel=&quot;nofollow&quot; target=&quot;_NEW&quot;&gt;\nhttp://i.imgur.com/OqE1LON.png&lt;/a&gt;\n\n\n &lt;a href=&quot;\nhttp://i.imgur.com/DUxbF5k.png&quot; rel=&quot;nofollow&quot; target=&quot;_NEW&quot;&gt;\nhttp://i.imgur.com/DUxbF5k.png&lt;/a&gt;\n\n\n\n\n\nIMDB:\n\n\n\n &lt;a href=&quot;\nhttp://www.imdb.com/title/tt2389162&quot; rel=&quot;nofollow&quot; target=&quot;_NEW&quot;&gt;\nhttp://www.imdb.com/title/tt2389162&lt;/a&gt;\n\n\n\n\nIMDB Rating:  N/A\n\n\n\n\nStoryline:\n\nJohn Falcon did 10 years of hard time in prison. Now he's got 24 hours to get revenge on every person who had a hand in sending him there.\n\n\n\nGeneral\nFormat                                   : MPEG-4\nFormat profile                           : Base Media\nCodec ID                                 : isom\nFile size                                : 1.13 GiB\nDuration                                 : 1h 17mn\nOverall bit rate mode                    : Variable\nOverall bit rate                         : 2 091 Kbps\nEncoded date                             : UTC 2014-09-29 18:03:43\nTagged date                              : UTC 2014-09-29 18:03:43\nWriting application                      : My MP4Box GUI 0.6.0.6 &lt;http://my-mp4box-gui.zymichost.com&gt;\n\nVideo\nID                                       : 1\nFormat                                   : AVC\nFormat/Info                              : Advanced Video Codec\nFormat profile                           : &lt;a class=&quot;__cf_email__&quot; href=&quot;/cdn-cgi/l/email-protection&quot; data-cfemail=&quot;5f173638371f136b716f&quot;&gt;[email&amp;#160;protected]&lt;/a&gt;&lt;script data-cfhash='f9e31' type=&quot;text/javascript&quot;&gt;\n/* &lt;![CDATA[ */!function(){try{var t=&quot;currentScript&quot;in document?document.currentScript:function(){for(var t=document.getElementsByTagName(&quot;script&quot;),e=t.length;e--;)if(t[e].getAttribute(&quot;data-cfhash&quot;))return t[e]}();if(t&amp;&amp;t.previousSibling){var e,r,n,i,c=t.previousSibling,a=c.getAttribute(&quot;data-cfemail&quot;);if(a){for(e=&quot;&quot;,r=parseInt(a.substr(0,2),16),n=2;a.length-n;n+=2)i=parseInt(a.substr(n,2),16)^r,e+=String.fromCharCode(i);e=document.createTextNode(e),c.parentNode.replaceChild(e,c)}t.parentNode.removeChild(t);}}catch(u){}}()/* ]]&gt; */&lt;/script&gt;\nFormat settings, CABAC                   : Yes\nFormat settings, ReFrames                : 6 frames\nCodec ID                                 : avc1\nCodec ID/Info                            : Advanced Video Coding\nDuration                                 : 1h 17mn\nBit rate                                 : 2 000 Kbps\nMaximum bit rate                         : 16.6 Mbps\nWidth                                    : 1 920 pixels\nHeight                                   : 816 pixels\nDisplay aspect ratio                     : 2.35:1\nFrame rate mode                          : Constant\nFrame rate                               : 24.000 fps\nColor space                              : YUV\nChroma subsampling                       : 4:2:0\nBit depth                                : 8 bits\nScan type                                : Progressive\nBits/(Pixel*Frame)                       : 0.053\nStream size                              : 1.08 GiB (95%)\nWriting library                          : x264 core 128\nLanguage                                 : English\nEncoded date                             : UTC 2014-09-29 17:59:33\nTagged date                              : UTC 2014-09-29 18:04:31\n\nAudio\nID                                       : 3\nFormat                                   : AAC\nFormat/Info                              : Advanced Audio Codec\nFormat profile                           : LC\nCodec ID                                 : 40\nDuration                                 : 1h 17mn\nBit rate mode                            : Variable\nBit rate                                 : 93.4 Kbps\nMaximum bit rate                         : 99.6 Kbps\nChannel(s)                               : 2 channels\nChannel positions                        : Front: L R\nSampling rate                            : 48.0 KHz\nCompression mode                         : Lossy\nStream size                              : 51.8 MiB (4%)\nTitle                                    : Audio AAC LC 96kb.aac\nEncoded date                             : UTC 2014-09-29 18:03:45\nTagged date                              : UTC 2014-09-29 18:04:31\n\nText\nID                                       : 2\nFormat                                   : Timed Text\nMuxing mode                              : sbtl\nCodec ID                                 : tx3g\nDuration                                 : 1h 13mn\nBit rate mode                            : Variable\nBit rate                                 : 33 bps\nStream size                              : 18.0 KiB (0%)\nLanguage                                 : Swedish\nEncoded date                             : UTC 2014-09-29 17:59:49\nTagged date                              : UTC 2014-09-29 18:04:31\n\nText\nID                                       : 4\nFormat                                   : Timed Text\nMuxing mode                              : sbtl\nCodec ID                                 : tx3g\nDuration                                 : 1h 13mn\nBit rate mode                            : Variable\nBit rate                                 : 33 bps\nStream size                              : 18.0 KiB (0%)\nLanguage                                 : English\nEncoded date                             : UTC 2014-09-29 17:59:49\nTagged date                              : UTC 2014-09-29 18:04:31\n\n\nPLEASE  SEED FOR AS LONG AS POSSIBLE TO KEEP THE TORRENT ALIVE :-)\n","torrent":{"xt":"urn:btih:1df8fac7381a4d80709a8f78a2a22eed6919af16","amp;dn":"American.Muscle.2014.1080p.BluRay.H264.AAC.Mp4.Raven","amp;tr":["udp%3A%2F%2Ftracker.openbittorrent.com%3A80","udp%3A%2F%2Fopen.demonii.com%3A1337","udp%3A%2F%2Ftracker.coppersurfer.tk%3A6969","udp%3A%2F%2Fexodus.desync.com%3A6969"],"infoHash":"1df8fac7381a4d80709a8f78a2a22eed6919af16","infoHashBuffer":{"type":"Buffer","data":[29,248,250,199,56,26,77,128,112,154,143,120,162,162,46,237,105,25,175,22]},"announce":[],"urlList":[]}}